<?xml version="1.0" encoding="utf-8"?>
<!-- Generator: Adobe Illustrator 15.1.0, SVG Export Plug-In . SVG Version: 6.00 Build 0)  -->
<svg version="1.2" baseProfile="tiny" xmlns="http://www.w3.org/2000/svg" xmlns:xlink="http://www.w3.org/1999/xlink" x="0px"
	 y="0px" width="150px" height="150px" viewBox="0 0 150 150" xml:space="preserve">
<g id="Layer_7">
	<linearGradient id="SVGID_1_" gradientUnits="userSpaceOnUse" x1="23.5518" y1="66.3296" x2="136.833" y2="66.3296">
		<stop  offset="0" style="stop-color:#4D45B0"/>
		<stop  offset="1" style="stop-color:#6E8CC9"/>
	</linearGradient>
	<path fill="url(#SVGID_1_)" d="M41.516,68.618c0.398,0.796,0.676,1.68,0.809,2.668c0.387,2.896-1.818,4.12-4.181,4.946
		c-4.791,1.676-8.724,5.364-9.248,10.616c-0.21,2.104,0.173,4.682,1.133,6.591c2.951,5.875,9.636,6.224,15.397,5.463
		c4.216-0.557,8.58-1.698,12.881-1.375c1.663,0.125,3.511,0.438,4.74,1.68c7.545,7.626,16.438,7.585,26.525,7.934
		c5.593,0.193,12.484,0.276,16.943-3.666c6.334-5.599,2.018-13.687,1.597-20.692c-0.615-10.26,13.895-11.525,20.594-14.657
		c2.816-1.316,5.917-3.463,7.092-6.52c1.984-5.162,1.182-10.995-2.983-14.839c-5.282-4.875-11.992-2.212-17.993-4.886
		c-6.95-3.097-8.077-6.284-12.081-12.373c-5.111-7.771-16.56-2.999-21.014,2.73c-2.719,3.496-5.658,7.948-10.588,6.981
		c-4.885-0.958-6.602-6.446-10.15-9.185c-5.772-4.456-10.707,1.903-12.54,7.278c-1.101,3.229-1.046,9.602-5.362,10.417
		c-1.354,0.255-3.662-0.04-4.857-0.73c-2.151-1.244-3.774-3.125-6.394-3.379c-5.133-0.498-9.241,3.959-8.087,9.023
		c0.298,1.309,0.884,2.928,1.688,4.017c1.337,1.813,3.086,3.344,5.045,4.456c2.612,1.484,5.957,1.72,8.302,3.669
		C40,65.798,40.816,67.219,41.516,68.618z"/>
	<linearGradient id="SVGID_2_" gradientUnits="userSpaceOnUse" x1="19.5977" y1="87.4956" x2="25.958" y2="87.4956">
		<stop  offset="0" style="stop-color:#4D45B0"/>
		<stop  offset="1" style="stop-color:#6E8CC9"/>
	</linearGradient>
	<path fill="url(#SVGID_2_)" d="M23.106,83.881c-0.032-0.002-0.064-0.003-0.097-0.004c-0.925-0.021-1.799,0.225-2.486,0.866
		c-0.631,0.59-0.9,1.424-0.924,2.271c-0.038,1.44,0.556,3.354,2.019,3.932c0.756,0.298,1.939,0.182,2.655-0.201
		c1.015-0.543,1.706-1.58,1.685-2.728C25.927,86.296,25.09,83.999,23.106,83.881z"/>
	<linearGradient id="SVGID_3_" gradientUnits="userSpaceOnUse" x1="26.5791" y1="67.9214" x2="31.6006" y2="67.9214">
		<stop  offset="0" style="stop-color:#4D45B0"/>
		<stop  offset="1" style="stop-color:#6E8CC9"/>
	</linearGradient>
	<path fill="url(#SVGID_3_)" d="M26.748,66.452c-0.068,0.169-0.116,0.345-0.143,0.523c-0.137,0.912,0.287,1.765,0.814,2.484
		c0.743,1.013,2.444,1.658,3.482,0.764c1.38-1.189,0.497-3.662-0.768-4.615c-0.591-0.446-1.534-0.509-2.216-0.298
		C27.36,65.483,26.958,65.93,26.748,66.452z"/>
	<linearGradient id="SVGID_4_" gradientUnits="userSpaceOnUse" x1="15.8105" y1="70.9844" x2="17.834" y2="70.9844">
		<stop  offset="0" style="stop-color:#4D45B0"/>
		<stop  offset="1" style="stop-color:#6E8CC9"/>
	</linearGradient>
	<path fill="url(#SVGID_4_)" d="M15.855,70.744c-0.112,0.357-0.021,0.729,0.361,0.952c0.129,0.076,0.286,0.142,0.433,0.175
		c0.621,0.141,1.168-0.324,1.185-0.969c0.004-0.155-0.043-0.332-0.143-0.452c-0.102-0.122-0.25-0.196-0.395-0.254
		c-0.268-0.109-0.605-0.17-0.887-0.082c-0.146,0.046-0.267,0.136-0.358,0.257C15.962,70.488,15.896,70.615,15.855,70.744z"/>
	<linearGradient id="SVGID_5_" gradientUnits="userSpaceOnUse" x1="39.3096" y1="38.5566" x2="44.2314" y2="38.5566">
		<stop  offset="0" style="stop-color:#4D45B0"/>
		<stop  offset="1" style="stop-color:#6E8CC9"/>
	</linearGradient>
	<path fill="url(#SVGID_5_)" d="M41.043,36.534c-0.473,0.037-0.94,0.168-1.307,0.483c-0.698,0.601-0.427,1.808,0.018,2.476
		c0.17,0.257,0.429,0.574,0.694,0.738c1.015,0.625,2.234,0.415,3.106-0.336c0.772-0.665,0.984-2.145,0.101-2.811
		C42.97,36.566,41.947,36.463,41.043,36.534z"/>
	<linearGradient id="SVGID_6_" gradientUnits="userSpaceOnUse" x1="40.9424" y1="31.7285" x2="42.915" y2="31.7285">
		<stop  offset="0" style="stop-color:#4D45B0"/>
		<stop  offset="1" style="stop-color:#6E8CC9"/>
	</linearGradient>
	<path fill="url(#SVGID_6_)" d="M41.063,32.063c0.354,0.648,1.357,0.769,1.691,0.247C43.678,30.385,40.269,30.353,41.063,32.063"/>
	<linearGradient id="SVGID_7_" gradientUnits="userSpaceOnUse" x1="116.377" y1="99.2451" x2="123.8652" y2="99.2451">
		<stop  offset="0" style="stop-color:#4D45B0"/>
		<stop  offset="1" style="stop-color:#6E8CC9"/>
	</linearGradient>
	<ellipse fill="url(#SVGID_7_)" cx="120.121" cy="99.246" rx="3.744" ry="4.279"/>
	<linearGradient id="SVGID_8_" gradientUnits="userSpaceOnUse" x1="122.3672" y1="79.0264" x2="125.1484" y2="79.0264">
		<stop  offset="0" style="stop-color:#4D45B0"/>
		<stop  offset="1" style="stop-color:#6E8CC9"/>
	</linearGradient>
	<ellipse fill="url(#SVGID_8_)" cx="123.758" cy="79.026" rx="1.391" ry="1.177"/>
</g>
<g id="Layer_2">
</g>
<g id="Layer_4">
	<g>
		<path fill="#023E87" d="M45.958,64.379c0,0-1.472-0.036-2.264,0.243c-0.755,0.266-1.722,0.735-1.936,2.213V79.74
			c0,0-0.04,0.702,0.855,1.431c0.896,0.729,1.679,1.104,2.635,1.518c0.956,0.414,30.355,12.269,30.355,12.269l2.084,1.026
			c0,0,0.662,0.374,0.788,0.481c0.124,0.107,0.326,0.33,0.326,0.669l-0.029,1.212v6.321h1.498v-7.703c0,0,0.089-0.392-0.214-0.802
			c-0.274-0.371-0.606-0.678-1.649-1.239l-3.9-1.516l-30.126-12.33c0,0-1.28-0.58-1.209-1.15s0.002-12.356,0.002-12.356
			s0.001-0.49,0.099-0.945c0.098-0.455,0.393-0.883,1.391-0.999c0.758-0.018,1.303-0.027,1.303-0.027L45.958,64.379z"/>
	</g>
</g>
<g id="Layer_5">
	<g>
		<linearGradient id="SVGID_9_" gradientUnits="userSpaceOnUse" x1="76.6875" y1="119.8784" x2="82.3926" y2="119.8784">
			<stop  offset="0" style="stop-color:#4D45B0"/>
			<stop  offset="1" style="stop-color:#6E8CC9"/>
		</linearGradient>
		<path fill="url(#SVGID_9_)" d="M79.611,135.726c0.57,0.089,1.312-0.209,1.797-0.357c0.873-0.268,0.763-0.652,0.814-1.409
			c0.088-1.294-0.044-2.606,0.17-3.904v-8.896c0,0-0.051-1.532-0.104-2.229c-0.054-0.695-0.432-4.028-0.449-4.848
			c-0.019-0.82-0.471-4.313-0.471-4.313c-0.214-1.105,0.05-2.689,0.05-2.689c0.275-0.562,0.34-1.354,0.17-1.952
			c-0.164-0.575-0.619-0.877-1.142-1.112c0,0-0.064,0.145-0.786,0.132h-0.288c-0.723,0.013-0.786-0.132-0.786-0.132
			c-0.522,0.235-0.978,0.538-1.141,1.112c-0.17,0.598-0.104,1.391,0.172,1.953c0,0,0.266,1.583,0.052,2.688
			c0,0-0.446,3.493-0.464,4.313s-0.384,4.153-0.438,4.849c-0.053,0.695-0.08,2.228-0.08,2.228v8.897
			c0.214,1.298,0.058,2.609,0.146,3.903c0.052,0.758-0.083,1.143,0.79,1.409c0.485,0.149,1.227,0.446,1.797,0.357H79.611z"/>
	</g>
</g>
<g id="Layer_6">
	<g>
		<path fill="#6C9DE5" d="M111.349,64.316c0,3.089-5.4,5.617-12,5.617H57.771c-6.6,0-12-2.527-12-5.617c0-3.089,5.4-5.616,12-5.616
			h41.578C105.948,58.7,111.349,61.228,111.349,64.316z"/>
		<path fill="#FFFFFF" d="M52.992,58.548c-0.86,0.002-1.035,1.313-0.502,1.764c0.617,0.523,2.118,0.491,2.871,0.543
			c1.055,0.072,2.122-0.229,3.185-0.17c0.466,0.026,1.169,0.042,1.55,0.374c0.522,0.461,0.434,1.344,0.905,1.87
			c1.41,1.572,4.324-0.265,6.006-0.374c1.108-0.072,2.348-0.564,3.446-0.184c-2.229,0.84,1.384,1.47,2.039,1.457
			c2.265-0.044,4.521-0.39,6.786-0.281c0.836,0.04,2.893,0.77,3.428-0.294c0.493-0.981-1.132-1.695-1.748-2.059
			c0.86,0.507,2.251,0.145,3.144-0.107c0.764-0.216,7.123-2.852,7.288-1.116c0.069,0.73-1.585,0.653-1.228,1.455
			c0.289,0.649,2.766,0.467,3.305,0.452c1.929-0.058,3.882-0.461,5.807-0.191c1.224,0.173,2.309,0.866,3.524,1.075
			c0.56,0.096,1.932,0.143,2.245-0.468c0.525-1.029-1.188-1.145-1.432-1.906c-0.173-0.544,0.617-1.157,0.989-1.405
			c-0.099-0.171-0.401-0.509-0.644-0.509C103.953,58.472,53.227,58.548,52.992,58.548z"/>
	</g>
</g>
</svg>
