<?xml version="1.0" encoding="utf-8"?>
<!-- Generator: Adobe Illustrator 15.1.0, SVG Export Plug-In . SVG Version: 6.00 Build 0)  -->
<!DOCTYPE svg PUBLIC "-//W3C//DTD SVG 1.1//EN" "http://www.w3.org/Graphics/SVG/1.1/DTD/svg11.dtd">
<svg version="1.1" id="Layer_1" xmlns="http://www.w3.org/2000/svg" xmlns:xlink="http://www.w3.org/1999/xlink" x="0px" y="0px"
	 width="628.469px" height="562.473px" viewBox="0 0 628.469 562.473" enable-background="new 0 0 628.469 562.473"
	 xml:space="preserve">
<g id="Layer_7">
	<path fill="none" stroke="#000000" stroke-width="2" stroke-miterlimit="10" d="M-146.993,109.494"/>
	<linearGradient id="SVGID_1_" gradientUnits="userSpaceOnUse" x1="8.7561" y1="462.1384" x2="524.7561" y2="86.1384">
		<stop  offset="0" style="stop-color:#4D45B0"/>
		<stop  offset="1" style="stop-color:#6E8CC9"/>
	</linearGradient>
	<path fill="url(#SVGID_1_)" d="M153.638,244.856c1.859,3.721,3.158,7.853,3.775,12.47c1.813,13.538-8.5,19.255-19.54,23.117
		c-22.392,7.831-40.77,25.07-43.222,49.617c-0.983,9.836,0.809,21.88,5.293,30.805c13.795,27.459,45.035,29.091,71.965,25.534
		c19.706-2.603,40.103-7.938,60.205-6.424c7.772,0.585,16.409,2.045,22.153,7.851c35.266,35.645,76.826,35.454,123.977,37.084
		c26.139,0.903,58.35,1.29,79.189-17.134c29.604-26.17,9.428-63.968,7.462-96.711c-2.878-47.952,64.939-53.868,96.25-68.503
		c13.165-6.154,27.656-16.188,33.146-30.475c9.273-24.124,5.521-51.387-13.945-69.354c-24.686-22.785-56.046-10.341-84.094-22.839
		c-32.485-14.477-37.752-29.37-56.469-57.829c-23.889-36.321-77.395-14.018-98.214,12.759
		c-12.704,16.339-26.444,37.151-49.484,32.629c-22.831-4.479-30.854-30.127-47.439-42.93c-26.98-20.824-50.042,8.894-58.608,34.018
		c-5.146,15.091-4.891,44.878-25.065,48.688c-6.327,1.194-17.112-0.186-22.701-3.414c-10.058-5.813-17.643-14.608-29.881-15.794
		c-23.993-2.326-43.193,18.506-37.801,42.174c1.395,6.116,4.136,13.684,7.89,18.775c6.25,8.477,14.426,15.628,23.581,20.827
		c12.208,6.936,27.841,8.04,38.799,17.148C146.553,231.678,150.368,238.315,153.638,244.856z"/>
	
		<linearGradient id="SVGID_2_" gradientUnits="userSpaceOnUse" x1="152.0984" y1="172.7864" x2="181.825" y2="172.7864" gradientTransform="matrix(1 0 0 -1 -100.8999 505.8726)">
		<stop  offset="0" style="stop-color:#4D45B0"/>
		<stop  offset="1" style="stop-color:#6E8CC9"/>
	</linearGradient>
	<path fill="url(#SVGID_2_)" d="M67.594,316.194c-0.149-0.009-0.3-0.015-0.452-0.019c-4.321-0.102-8.408,1.049-11.618,4.049
		c-2.95,2.757-4.211,6.654-4.317,10.614c-0.179,6.729,2.592,15.676,9.435,18.377c3.529,1.393,9.061,0.851,12.406-0.939
		c4.745-2.537,7.976-7.383,7.875-12.748C80.775,327.483,76.865,316.745,67.594,316.194z"/>
	
		<linearGradient id="SVGID_3_" gradientUnits="userSpaceOnUse" x1="184.7268" y1="264.2717" x2="208.1946" y2="264.2717" gradientTransform="matrix(1 0 0 -1 -100.8999 505.8726)">
		<stop  offset="0" style="stop-color:#4D45B0"/>
		<stop  offset="1" style="stop-color:#6E8CC9"/>
	</linearGradient>
	<path fill="url(#SVGID_3_)" d="M84.614,234.734c-0.317,0.788-0.541,1.613-0.666,2.445c-0.64,4.265,1.343,8.249,3.808,11.611
		c3.472,4.734,11.427,7.75,16.275,3.572c6.449-5.556,2.323-17.114-3.585-21.57c-2.765-2.085-7.173-2.38-10.359-1.395
		C87.477,230.205,85.597,232.29,84.614,234.734z"/>
	
		<linearGradient id="SVGID_4_" gradientUnits="userSpaceOnUse" x1="134.3967" y1="249.9553" x2="143.8547" y2="249.9553" gradientTransform="matrix(1 0 0 -1 -100.8999 505.8726)">
		<stop  offset="0" style="stop-color:#4D45B0"/>
		<stop  offset="1" style="stop-color:#6E8CC9"/>
	</linearGradient>
	<path fill="url(#SVGID_4_)" d="M33.704,254.793c-0.521,1.668-0.094,3.406,1.688,4.451c0.604,0.354,1.338,0.664,2.021,0.819
		c2.905,0.658,5.461-1.513,5.54-4.531c0.02-0.725-0.203-1.55-0.668-2.11c-0.473-0.569-1.169-0.916-1.843-1.188
		c-1.253-0.509-2.83-0.796-4.146-0.382c-0.682,0.215-1.244,0.633-1.677,1.199C34.205,253.598,33.893,254.191,33.704,254.793z"/>
	
		<linearGradient id="SVGID_5_" gradientUnits="userSpaceOnUse" x1="244.2263" y1="401.5193" x2="267.2307" y2="401.5193" gradientTransform="matrix(1 0 0 -1 -100.8999 505.8726)">
		<stop  offset="0" style="stop-color:#4D45B0"/>
		<stop  offset="1" style="stop-color:#6E8CC9"/>
	</linearGradient>
	<path fill="url(#SVGID_5_)" d="M151.428,94.899c-2.208,0.172-4.398,0.789-6.108,2.259c-3.265,2.808-1.996,8.448,0.08,11.573
		c0.796,1.199,2.007,2.682,3.246,3.447c4.742,2.925,10.443,1.938,14.52-1.57c3.612-3.108,4.602-10.024,0.473-13.137
		C160.431,95.053,155.652,94.57,151.428,94.899z"/>
	
		<linearGradient id="SVGID_6_" gradientUnits="userSpaceOnUse" x1="251.8567" y1="433.4314" x2="261.0764" y2="433.4314" gradientTransform="matrix(1 0 0 -1 -100.8999 505.8726)">
		<stop  offset="0" style="stop-color:#4D45B0"/>
		<stop  offset="1" style="stop-color:#6E8CC9"/>
	</linearGradient>
	<path fill="url(#SVGID_6_)" d="M151.523,74.003c1.656,3.031,6.344,3.595,7.906,1.156C163.742,66.16,147.809,66.013,151.523,74.003"
		/>
	
		<linearGradient id="SVGID_7_" gradientUnits="userSpaceOnUse" x1="604.4236" y1="117.8689" x2="639.4236" y2="117.8689" gradientTransform="matrix(1 0 0 -1 -100.8999 505.8726)">
		<stop  offset="0" style="stop-color:#4D45B0"/>
		<stop  offset="1" style="stop-color:#6E8CC9"/>
	</linearGradient>
	<ellipse fill="url(#SVGID_7_)" cx="521.023" cy="388.004" rx="17.5" ry="20"/>
	
		<linearGradient id="SVGID_8_" gradientUnits="userSpaceOnUse" x1="632.4236" y1="212.3694" x2="645.4236" y2="212.3694" gradientTransform="matrix(1 0 0 -1 -100.8999 505.8726)">
		<stop  offset="0" style="stop-color:#4D45B0"/>
		<stop  offset="1" style="stop-color:#6E8CC9"/>
	</linearGradient>
	<ellipse fill="url(#SVGID_8_)" cx="538.023" cy="293.503" rx="6.5" ry="5.5"/>
</g>
<g id="Layer_2">
</g>
<g id="Layer_4">
	<g>
		<path fill="#023E87" d="M174.397,225.045c0,0-6.875-0.167-10.578,1.136c-3.527,1.239-8.047,3.438-9.047,10.344v60.313
			c0,0-0.188,3.281,4,6.688c4.188,3.407,7.844,5.156,12.313,7.094c4.47,1.938,141.875,57.345,141.875,57.345l9.739,4.792
			c0,0,3.099,1.75,3.683,2.25c0.583,0.5,1.527,1.541,1.527,3.125l-0.137,5.666v29.543h7v-36c0,0,0.416-1.834-1-3.75
			c-1.281-1.733-2.834-3.167-7.709-5.792l-18.229-7.083l-140.802-57.626c0,0-5.985-2.708-5.651-5.375
			c0.334-2.668,0.009-57.751,0.009-57.751s0.004-2.292,0.462-4.417s1.835-4.125,6.502-4.667c3.542-0.083,6.084-0.125,6.084-0.125
			L174.397,225.045z"/>
	</g>
</g>
<g id="Layer_5">
	<g>
		
			<linearGradient id="SVGID_9_" gradientUnits="userSpaceOnUse" x1="418.9236" y1="21.4353" x2="445.5896" y2="21.4353" gradientTransform="matrix(1 0 0 -1 -100.8999 505.8726)">
			<stop  offset="0" style="stop-color:#4D45B0"/>
			<stop  offset="1" style="stop-color:#6E8CC9"/>
		</linearGradient>
		<path fill="url(#SVGID_9_)" d="M331.69,558.503c2.667,0.417,6.128-0.974,8.396-1.667c4.084-1.25,3.565-3.05,3.808-6.59
			c0.414-6.048-0.203-12.179,0.797-18.243v-41.584c0,0-0.24-7.162-0.49-10.412s-2.017-18.83-2.1-22.663
			c-0.084-3.833-2.199-20.159-2.199-20.159c-1-5.167,0.23-12.567,0.23-12.567c1.288-2.625,1.591-6.331,0.794-9.126
			c-0.764-2.685-2.893-4.098-5.336-5.196c0,0-0.299,0.678-3.674,0.614l-1.346,0.001c-3.375,0.063-3.672-0.614-3.672-0.614
			c-2.443,1.1-4.568,2.513-5.332,5.196c-0.796,2.795-0.486,6.501,0.801,9.126c0,0,1.245,7.4,0.245,12.567
			c0,0-2.086,16.326-2.169,20.159c-0.084,3.833-1.793,19.413-2.043,22.663s-0.377,10.412-0.377,10.412v41.584
			c1,6.064,0.27,12.195,0.683,18.243c0.241,3.54-0.391,5.34,3.692,6.59c2.268,0.693,5.729,2.084,8.396,1.667L331.69,558.503z"/>
	</g>
</g>
<g id="Layer_6">
	<g>
		<g>
			<path fill="#6C9DE5" d="M480.023,239.004c0,6.601-5.4,12-12,12h-282.5c-6.601,0-12-5.399-12-12v-28.5c0-6.6,5.399-12,12-12h282.5
				c6.6,0,12,5.4,12,12V239.004z"/>
		</g>
		<path fill="#FFFFFF" d="M186.336,198.92c-4.667,0.013-5.616,7.11-2.722,9.561c3.345,2.831,11.481,2.659,15.558,2.938
			c5.728,0.396,11.503-1.245,17.269-0.921c2.529,0.143,6.342,0.23,8.396,2.031c2.836,2.495,2.358,7.285,4.91,10.13
			c7.644,8.521,23.442-1.434,32.549-2.022c6.014-0.39,12.73-3.062,18.687-1c-12.086,4.555,7.503,7.967,11.059,7.897
			c12.271-0.239,24.498-2.116,36.786-1.529c4.527,0.217,15.67,4.175,18.57-1.589c2.676-5.318-6.129-9.19-9.469-11.16
			c4.658,2.747,12.201,0.783,17.036-0.584c4.145-1.172,38.612-15.458,39.505-6.048c0.375,3.958-8.588,3.536-6.647,7.889
			c1.565,3.514,14.993,2.531,17.906,2.443c10.456-0.313,21.042-2.504,31.483-1.034c6.626,0.934,12.505,4.691,19.099,5.825
			c3.032,0.521,10.476,0.775,12.17-2.538c2.847-5.575-6.438-6.208-7.762-10.333c-0.938-2.952,3.343-6.275,5.366-7.614
			c-0.54-0.928-2.184-2.758-3.488-2.756C462.58,198.503,187.598,198.918,186.336,198.92z"/>
	</g>
</g>
</svg>
