<?xml version="1.0" encoding="utf-8"?>
<!-- Generator: Adobe Illustrator 15.1.0, SVG Export Plug-In . SVG Version: 6.00 Build 0)  -->
<!DOCTYPE svg PUBLIC "-//W3C//DTD SVG 1.1//EN" "http://www.w3.org/Graphics/SVG/1.1/DTD/svg11.dtd">
<svg version="1.1" id="Layer_1" xmlns="http://www.w3.org/2000/svg" xmlns:xlink="http://www.w3.org/1999/xlink" x="0px" y="0px"
	 width="346px" height="363px" viewBox="146.5 58.5 346 363" enable-background="new 146.5 58.5 346 363" xml:space="preserve">
<g>
	
		<linearGradient id="SVGID_1_" gradientUnits="userSpaceOnUse" x1="243.1863" y1="84.0369" x2="270.5382" y2="158.3877" gradientTransform="matrix(1 0 0 -1 -100.8999 423.4009)">
		<stop  offset="0" style="stop-color:#1B1464"/>
		<stop  offset="1" style="stop-color:#0073A1"/>
	</linearGradient>
	<rect x="150.487" y="210.877" fill="url(#SVGID_1_)" width="36.984" height="111.855"/>
	
		<linearGradient id="SVGID_2_" gradientUnits="userSpaceOnUse" x1="571.9207" y1="73.8713" x2="571.9207" y2="143.0144" gradientTransform="matrix(1 0 0 -1 -100.8999 423.4009)">
		<stop  offset="0" style="stop-color:#1B1464"/>
		<stop  offset="1" style="stop-color:#0073A1"/>
	</linearGradient>
	<rect x="452.528" y="210.877" fill="url(#SVGID_2_)" width="36.984" height="111.855"/>
	<path d="M474.296,210.745c0-78.055-68.774-147.934-153.524-147.934H320c-84.75,0-153.332,69.325-153.332,147.378
		c0,0,10.378,0.295,10.394-0.026c3.287-72.154,65.98-135.996,142.963-135.996h0.723c76.96,0,139.638,64.157,142.955,136.288
		C463.714,210.642,474.296,210.745,474.296,210.745z"/>
	<path fill="none" stroke="#000000" stroke-miterlimit="10" d="M471.021,322.156c0,52.095-51.371,88.621-127.389,88.621"/>
	
		<radialGradient id="SVGID_3_" cx="441.3191" cy="13.9631" r="8.8878" gradientTransform="matrix(1 0 0 -1 -100.8999 423.4009)" gradientUnits="userSpaceOnUse">
		<stop  offset="0" style="stop-color:#B3B3B3"/>
		<stop  offset="1" style="stop-color:#1A1A1A"/>
	</radialGradient>
	<path fill="url(#SVGID_3_)" d="M348.768,409.74c0,4.011-3.222,7.248-7.193,7.248s-7.193-3.238-7.193-7.248
		c0-4.009,3.222-7.253,7.193-7.253S348.768,405.732,348.768,409.74z"/>
</g>
</svg>
