<?xml version="1.0" encoding="utf-8"?>
<!-- Generator: Adobe Illustrator 15.1.0, SVG Export Plug-In . SVG Version: 6.00 Build 0)  -->
<svg version="1.2" baseProfile="tiny" id="Layer_1" xmlns="http://www.w3.org/2000/svg" xmlns:xlink="http://www.w3.org/1999/xlink"
	 x="0px" y="0px" width="150px" height="150px" viewBox="0 0 150 150" xml:space="preserve">
<g>
	<linearGradient id="SVGID_1_" gradientUnits="userSpaceOnUse" x1="25.6074" y1="102.5459" x2="33.2096" y2="81.8809">
		<stop  offset="0" style="stop-color:#1B1464"/>
		<stop  offset="1" style="stop-color:#0073A1"/>
	</linearGradient>
	<rect x="27.886" y="66.833" fill="url(#SVGID_1_)" width="10.279" height="31.089"/>
	<linearGradient id="SVGID_2_" gradientUnits="userSpaceOnUse" x1="116.9746" y1="105.3701" x2="116.9746" y2="86.1527">
		<stop  offset="0" style="stop-color:#1B1464"/>
		<stop  offset="1" style="stop-color:#0073A1"/>
	</linearGradient>
	<rect x="111.835" y="66.833" fill="url(#SVGID_2_)" width="10.278" height="31.089"/>
	<path d="M117.885,66.797c0-21.694-19.115-41.116-42.67-41.116H75c-23.555,0-42.616,19.268-42.616,40.962
		c0,0,2.884,0.082,2.888-0.008c0.913-20.054,18.338-37.798,39.735-37.798h0.201c21.39,0,38.81,17.832,39.732,37.879
		C114.943,66.769,117.885,66.797,117.885,66.797z"/>
	<path fill="none" stroke="#000000" stroke-miterlimit="10" d="M116.974,97.762c0,14.479-14.277,24.632-35.405,24.632"/>
	<radialGradient id="SVGID_3_" cx="80.6748" cy="122.0215" r="2.47" gradientUnits="userSpaceOnUse">
		<stop  offset="0" style="stop-color:#B3B3B3"/>
		<stop  offset="1" style="stop-color:#1A1A1A"/>
	</radialGradient>
	<ellipse fill="url(#SVGID_3_)" cx="80.996" cy="122.105" rx="1.999" ry="2.015"/>
</g>
</svg>
