<?xml version="1.0" encoding="utf-8"?>
<!-- Generator: Adobe Illustrator 15.1.0, SVG Export Plug-In . SVG Version: 6.00 Build 0)  -->
<svg version="1.2" baseProfile="tiny" id="Layer_1" xmlns="http://www.w3.org/2000/svg" xmlns:xlink="http://www.w3.org/1999/xlink"
	 x="0px" y="0px" width="279.815px" height="153px" viewBox="0 0 279.815 153" xml:space="preserve">
<text transform="matrix(1 0 0 1 1 72.2344)" font-family="'PalatinoLinotype-Roman'" font-size="102">NEVE</text>
<line fill="none" stroke="#000000" stroke-width="2" stroke-miterlimit="10" x1="5.75" y1="92.25" x2="274.75" y2="92.25"/>
<text transform="matrix(1 0 0 1 1.0923 150.9229)" font-family="'SegoeUI-Semilight'" font-size="52">S</text>
<text transform="matrix(1 0 0 1 27.8286 150.9229)" font-family="'SegoeUI-Semilight'" font-size="52">O</text>
<text transform="matrix(1 0 0 1 67.2095 150.9229)" font-family="'SegoeUI-Semilight'" font-size="52">L</text>
<text transform="matrix(1 0 0 1 90.6196 150.9229)" font-family="'SegoeUI-Semilight'" font-size="52">U</text>
<text transform="matrix(1 0 0 1 125.3286 150.9229)" font-family="'SegoeUI-Semilight'" font-size="52">T</text>
<text transform="matrix(1 0 0 1 152.2422 150.9229)" font-family="'SegoeUI-Semilight'" font-size="52">I</text>
<text transform="matrix(1 0 0 1 165.0898 150.9229)" font-family="'SegoeUI-Semilight'" font-size="52">O</text>
<text transform="matrix(1 0 0 1 204.4707 150.9229)" font-family="'SegoeUI-Semilight'" font-size="52">N</text>
<text transform="matrix(1 0 0 1 242.3535 150.9229)" font-family="'SegoeUI-Semilight'" font-size="52">S</text>
<rect x="-179.75" y="-146.25" fill="none" stroke="#000000" stroke-miterlimit="10" width="642" height="482"/>
</svg>
