<?xml version="1.0" encoding="utf-8"?>
<!-- Generator: Adobe Illustrator 15.1.0, SVG Export Plug-In . SVG Version: 6.00 Build 0)  -->
<!DOCTYPE svg PUBLIC "-//W3C//DTD SVG 1.1//EN" "http://www.w3.org/Graphics/SVG/1.1/DTD/svg11.dtd">
<svg version="1.1" id="Layer_1" xmlns="http://www.w3.org/2000/svg" xmlns:xlink="http://www.w3.org/1999/xlink" x="0px" y="0px"
	 width="326.394px" height="325.985px" viewBox="0 0 326.394 325.985" enable-background="new 0 0 326.394 325.985"
	 xml:space="preserve">
<g>
	<path fill="#1FFFB0" d="M163.312,162.705L141.49,316.082c46.564,6.589,95.551-8.02,131.365-43.834
		c60.5-60.499,60.5-158.588,0-219.087c-9.717-9.717-20.408-17.864-31.753-24.46l-77.787,133.978L163.312,162.705z"/>
	<path fill="#A27FFF" d="M141.49,316.082c-32.094-4.54-63.037-19.149-87.722-43.834c-28.506-28.506-43.575-65.357-45.217-102.689"/>
	<path fill="#A27FFF" d="M8.551,169.559c1.643,37.332,16.711,74.183,45.217,102.689c24.685,24.685,55.627,39.294,87.722,43.834
		l21.822-153.377L8.551,169.559z"/>
	<path fill="#FF1FF0" d="M8.551,169.559c-1.845-41.9,13.224-84.405,45.217-116.398C67.41,39.519,82.967,28.964,99.57,21.475"/>
	<path fill="#FF1FF0" d="M163.307,162.693l-0.007,0.011l0.003-0.02L99.57,21.475c-16.603,7.49-32.16,18.044-45.802,31.687
		C21.775,85.154,6.706,127.659,8.551,169.559l154.761-6.854L163.307,162.693z"/>
	<path fill="#FFF9DF" d="M99.57,21.475c26.359-11.891,55.358-16.03,83.559-12.413"/>
	<polygon fill="#FFFFFF" points="163.312,162.705 163.315,162.679 163.307,162.693 	"/>
	<path fill="#FFF9DF" d="M183.129,9.062c-28.2-3.617-57.199,0.521-83.559,12.413l63.732,141.21L183.129,9.062z"/>
	<path fill="#FFF9DF" d="M183.136,9.063c20.153,2.585,39.894,9.131,57.966,19.638"/>
	<path fill="#FFF9DF" d="M163.315,162.679l77.787-133.978C223.03,18.194,203.29,11.648,183.136,9.063L163.315,162.679z"/>
	<polygon fill="#FFFFFF" points="163.3,162.705 163.307,162.693 163.303,162.685 	"/>
	<line fill="#FFF9DF" x1="183" y1="9" x2="183" y2="9"/>
	<polygon fill="#FFF9DF" points="163.307,162.693 163.315,162.647 183.136,9 183.129,9 163.303,162.653 	"/>
</g>
</svg>
