<?xml version="1.0" encoding="utf-8"?>
<!-- Generator: Adobe Illustrator 15.1.0, SVG Export Plug-In . SVG Version: 6.00 Build 0)  -->
<!DOCTYPE svg PUBLIC "-//W3C//DTD SVG 1.1//EN" "http://www.w3.org/Graphics/SVG/1.1/DTD/svg11.dtd">
<svg version="1.1" id="Layer_1" xmlns="http://www.w3.org/2000/svg" xmlns:xlink="http://www.w3.org/1999/xlink" x="0px" y="0px"
	 width="201.639px" height="366.393px" viewBox="0 0 201.639 366.393" enable-background="new 0 0 201.639 366.393"
	 xml:space="preserve">
<g>
	<polygon fill="#FFFFFF" points="74.68,160.236 99.42,156.709 127.823,157.221 113.404,330.443 109.073,352.836 89.954,352.836 
		81.438,278.608 74.68,191.631 	"/>
	<polygon fill="#3535C5" points="90.715,164.398 98.838,175.951 103.47,175.951 113.912,161.691 104.052,156.685 98.256,156.488 	
		"/>
	<polygon fill="#3535C5" points="98.838,175.846 91.297,309.935 100.77,324.22 111.004,310.505 103.47,175.846 	"/>
	<path fill="#FFBBA6" d="M151.789,67.581c0,4.385-1.443,7.945-3.222,7.945s-3.222-3.56-3.222-7.945c0-4.385,1.443-7.945,3.222-7.945
		S151.789,63.196,151.789,67.581z"/>
	<path fill="#FFBBA6" d="M61.638,70.99c0,4.385-1.445,7.945-3.21,7.945c-1.792,0-3.235-3.56-3.235-7.945
		c0-4.386,1.444-7.945,3.235-7.945C60.192,63.045,61.638,66.604,61.638,70.99z"/>
	<polyline fill="#FFBBA6" points="80.855,122.115 79.117,136.341 96.138,151.93 111.004,153.324 123.385,140.796 122.803,127.092 	
		"/>
	<linearGradient id="SVGID_1_" gradientUnits="userSpaceOnUse" x1="80.0283" y1="167.7227" x2="104.2811" y2="62.8651">
		<stop  offset="0" style="stop-color:#C69C6D"/>
		<stop  offset="1" style="stop-color:#754C24"/>
	</linearGradient>
	<path fill="url(#SVGID_1_)" d="M70.221,116.065c0.026,0.011,26.399,22.114,26.399,22.114s3.569,2.851,9.271,0
		c5.707-2.851,25.683-15.692,31.384-24.256c12.535-18.821,11.364-43.224,9.28-64.198C144.924,33.357,141.508,11,122.208,4.894
		C106.159-0.19,87.568,7.136,75.181,17.271c-13.752,11.26-17.146,29.73-16.372,46.005C59.39,75.258,59.356,108.552,70.221,116.065z"
		/>
	<path fill="#FFBBA6" d="M67.875,75.094c2.091-12.631,5.895-33.209,3.068-33.932c3.562,0.896,11.077-0.952,18.008-3.198
		c10.375-3.373,25.036-17.996,36.146-10.482c4.799,3.259,11.149,10.669,13.248,16.007c3.617,9.168,3.804,25.767,3.396,36.015
		c-0.309,7.25-7.54,12.878-11.785,18.008c-0.802,0.966-4.213,3.791-4.318,4.977c0.487-5.872-7.106-7.387-11.284-8.025
		c-5.208-0.792-9.045-0.037-14.733,2.105c-5.013,1.885-11.518,10.412-13.651,9.503c-3.161-1.628-6.162-3.477-9.185-5.352
		c-2.826-1.778-6.256-4.676-7.747-7.955c-1.19-2.617-2.06-4.76-2.353-8.399C66.59,83.193,67.125,79.667,67.875,75.094z"/>
	<path fill="#916744" d="M98.069,101.142l9.915,34.745c0,0-6.933,7.934-19.849-10.923c-12.908-18.855-19.806-11.271-19.806-11.271
		l3.916-13.54C72.245,100.153,86.156,122.975,98.069,101.142z"/>
	<polygon opacity="0.5" fill="#CECECE" points="79.819,135.493 63.849,145.089 90.648,167.038 101.466,152.872 	"/>
	<polygon opacity="0.19" fill="#C9C9C9" points="123.197,135.84 139.154,145.439 112.368,167.389 101.539,153.207 	"/>
	<polygon fill="#FFFFFF" points="123.197,134.98 139.154,144.59 112.368,166.527 101.539,152.348 	"/>
	<polygon fill="#FFFFFF" points="79.618,134.98 63.662,144.59 90.448,166.527 101.279,152.348 	"/>
	<rect x="4.708" y="346.59" fill="#FFFFFF" width="32.081" height="6.689"/>
	<rect x="162.425" y="346.59" fill="#FFFFFF" width="35.43" height="6.689"/>
	<path fill="#193068" d="M36.789,347.277H3.873c0,0,0-99.796,0-135.01c0-43.912,75.458-77.751,75.458-77.751l14.741,218.588
		l-57.47-2.059"/>
	<polygon fill="#446ADE" points="94.025,352.752 49.143,246.108 70.174,208.371 49.691,200.135 79.331,134.63 	"/>
	<path fill="#193068" d="M162.11,347.393h36.854c0,0,0-99.912,0-135.126c0-43.912-75.467-77.751-75.467-77.751l-14.739,218.588
		l53.084-2.733"/>
	<polygon fill="#446ADE" points="108.806,352.752 153.674,246.108 132.664,208.371 153.139,200.135 123.498,134.63 	"/>
	<polygon fill="#FFFFFF" points="35.827,352.884 35.438,264.451 37.558,353.28 	"/>
	<polygon fill="#FFFFFF" points="162.425,352.884 162.818,264.451 160.68,353.28 	"/>
</g>
</svg>
