<?xml version="1.0" encoding="utf-8"?>
<!-- Generator: Adobe Illustrator 15.1.0, SVG Export Plug-In . SVG Version: 6.00 Build 0)  -->
<!DOCTYPE svg PUBLIC "-//W3C//DTD SVG 1.1//EN" "http://www.w3.org/Graphics/SVG/1.1/DTD/svg11.dtd">
<svg version="1.1" xmlns="http://www.w3.org/2000/svg" xmlns:xlink="http://www.w3.org/1999/xlink" x="0px" y="0px" width="264px"
	 height="175px" viewBox="0 0 264 175" enable-background="new 0 0 264 175" xml:space="preserve">
<g id="Arrow">
	<line fill="none" stroke="#5F89FF" stroke-width="3" stroke-miterlimit="10" x1="242.59" y1="79.593" x2="130.396" y2="89.096"/>
	<path fill="none" stroke="#5F89FF" stroke-width="3" stroke-miterlimit="10" d="M240.958,79.75
		c0.577-4.552,1.834-12.042,1.834-12.042c-10.584-0.462-22.292-0.125-20.708,13.5L240.958,79.75z"/>
	<path fill="none" stroke="#5F89FF" stroke-width="3" stroke-miterlimit="10" d="M240.774,79.78
		c1.332,4.39,3.827,11.563,3.827,11.563c-10.357,2.23-21.956,3.86-22.679-9.836L240.774,79.78z"/>
</g>
<g id="Circle">
	<g>
		<path fill="none" stroke="#6666CC" stroke-width="3" stroke-miterlimit="10" d="M131.369,161.345
			c-40.086,0-72.583-32.496-72.583-72.583S91.283,16.18,131.369,16.18"/>
		<circle fill="none" stroke="#5F89FF" stroke-width="3" stroke-miterlimit="10" cx="131.369" cy="88.762" r="58.565"/>
		<circle fill="none" stroke="#5F89FF" stroke-width="3" stroke-miterlimit="10" cx="131.369" cy="88.762" r="44.631"/>
		<circle fill="none" stroke="#5F89FF" stroke-width="3" stroke-miterlimit="10" cx="131.369" cy="88.762" r="32.41"/>
		<circle fill="none" stroke="#5F89FF" stroke-width="3" stroke-miterlimit="10" cx="131.369" cy="88.762" r="19.17"/>
		<circle fill="#5F89FF" cx="131.508" cy="89.017" r="7.377"/>
	</g>
</g>
<g id="Layer_3">
	<g>
		<rect x="10.86" y="131.5" fill="#FFFFFF" stroke="#DCD9FF" stroke-miterlimit="10" width="227" height="18"/>
		<polyline fill="none" stroke="#DCD9FF" stroke-width="0.75" stroke-miterlimit="10" points="220.518,138.663 224.032,141.907 
			227.547,138.663 		"/>
	</g>
</g>
</svg>
