<?xml version="1.0" encoding="utf-8"?>
<!-- Generator: Adobe Illustrator 15.1.0, SVG Export Plug-In . SVG Version: 6.00 Build 0)  -->
<svg version="1.2" baseProfile="tiny" xmlns="http://www.w3.org/2000/svg" xmlns:xlink="http://www.w3.org/1999/xlink" x="0px"
	 y="0px" width="150px" height="150px" viewBox="0 0 150 150" xml:space="preserve">
<g id="Arrow">
	<line fill="none" stroke="#5F89FF" stroke-width="3" stroke-miterlimit="10" x1="135.787" y1="69.388" x2="76.148" y2="74.439"/>
	<path fill="none" stroke="#5F89FF" stroke-width="3" stroke-miterlimit="10" d="M134.918,69.472
		c0.307-2.42,0.975-6.401,0.975-6.401c-5.626-0.246-11.85-0.066-11.008,7.176L134.918,69.472z"/>
	<path fill="none" stroke="#5F89FF" stroke-width="3" stroke-miterlimit="10" d="M134.821,69.488
		c0.708,2.333,2.035,6.146,2.035,6.146c-5.506,1.186-11.672,2.052-12.056-5.229L134.821,69.488z"/>
</g>
<g id="Circle">
	<g>
		<path fill="none" stroke="#6666CC" stroke-width="3" stroke-miterlimit="10" d="M76.665,112.845
			c-21.309,0-38.583-17.274-38.583-38.583S55.356,35.68,76.665,35.68"/>
		<circle fill="none" stroke="#5F89FF" stroke-width="3" stroke-miterlimit="10" cx="76.665" cy="74.262" r="31.131"/>
		<circle fill="none" stroke="#5F89FF" stroke-width="3" stroke-miterlimit="10" cx="76.665" cy="74.262" r="23.725"/>
		<circle fill="none" stroke="#5F89FF" stroke-width="3" stroke-miterlimit="10" cx="76.665" cy="74.262" r="17.228"/>
		<circle fill="none" stroke="#5F89FF" stroke-width="3" stroke-miterlimit="10" cx="76.665" cy="74.262" r="10.19"/>
		<circle fill="#5F89FF" cx="76.739" cy="74.397" r="3.921"/>
	</g>
</g>
<g id="Layer_3">
	<g>
		<rect x="12.606" y="96.98" fill="#FFFFFF" stroke="#DCD9FF" stroke-miterlimit="10" width="120.667" height="9.568"/>
		<polyline fill="none" stroke="#DCD9FF" stroke-width="0.75" stroke-miterlimit="10" points="124.053,100.788 125.921,102.512 
			127.79,100.788 		"/>
	</g>
</g>
</svg>
