<?xml version="1.0" encoding="utf-8"?>
<!-- Generator: Adobe Illustrator 15.1.0, SVG Export Plug-In . SVG Version: 6.00 Build 0)  -->
<svg version="1.2" baseProfile="tiny" id="Layer_1" xmlns="http://www.w3.org/2000/svg" xmlns:xlink="http://www.w3.org/1999/xlink"
	 x="0px" y="0px" width="150px" height="150px" viewBox="0 0 150 150" xml:space="preserve">
<g>
	<path fill="#1D4259" d="M133.084,105.49c0,0.807-28.722,1.459-64.151,1.459s-50.25-0.652-50.25-1.459s14.82-1.46,50.25-1.46
		S133.084,104.684,133.084,105.49"/>
	<path fill="#0F222C" d="M37.773,89.748c4.534,0,8.208,3.677,8.208,8.21c0,4.533-3.674,8.207-8.208,8.207h-2.275V89.748H37.773z"/>
	<path fill="#0F222C" d="M80.627,89.748c4.534,0,8.209,3.677,8.209,8.21c0,4.533-3.675,8.207-8.209,8.207h-2.275V89.748H80.627z"/>
	<path fill="#0F222C" d="M37.773,89.748c4.534,0,8.208,3.677,8.208,8.21c0,4.533-3.674,8.207-8.208,8.207h-2.275V89.748H37.773z"/>
	<path fill="#0F222C" d="M45.093,96.425c0-4.533,3.676-8.208,8.209-8.208c4.534,0,8.209,3.675,8.209,8.208
		c0,4.534-3.675,8.209-8.209,8.209C48.769,104.634,45.093,100.959,45.093,96.425"/>
	<path fill="#0F222C" d="M99.403,88.217c4.533,0,8.209,3.675,8.209,8.208c0,4.534-3.676,8.209-8.209,8.209h-2.278V88.217H99.403z"/>
	<path fill="#0F222C" d="M88.918,96.425c0-4.533,3.674-8.208,8.207-8.208c4.535,0,8.21,3.675,8.21,8.208
		c0,4.534-3.676,8.209-8.21,8.209C92.593,104.634,88.918,100.959,88.918,96.425"/>
	<rect x="78.352" y="44.318" fill="#E8BF7C" width="42.103" height="14.541"/>
	<rect x="61.511" y="58.821" fill="#E8BF7C" width="33.682" height="33.681"/>
	<rect x="95.193" y="58.821" fill="#D0A56B" width="25.261" height="33.681"/>
	<polygon fill="#A87944" points="95.193,58.859 120.454,58.859 133.084,46.304 107.822,46.304 	"/>
	<polygon fill="#D0A56B" points="95.193,58.82 61.511,58.82 48.88,46.19 82.562,46.19 	"/>
	<path fill="#1D4259" d="M20.303,97.958h74.89v-5.456h-74.89c-0.895,0-1.62,0.726-1.62,1.62v2.215
		C18.683,97.232,19.408,97.958,20.303,97.958"/>
	<path fill="#3F6BFF" d="M20.303,92.502h41.208V58.82H40.861c-4.03,0-7.799,2.002-10.055,5.341l-8.424,12.467
		c-1.356,2.006-2.08,4.373-2.08,6.794V92.502z"/>
	<path fill="#F2F2F2" d="M51.621,78.751V62.611H40.861c-2.775,0-5.361,1.373-6.915,3.673l-8.423,12.468H51.621z"/>
	<rect x="56.548" y="58.82" fill="#1C2554" width="4.963" height="33.683"/>
	<path fill="#0F222C" d="M77.972,88.217c5.38,0,9.741,4.36,9.741,9.741H68.231C68.231,92.577,72.592,88.217,77.972,88.217"/>
	<path fill="#0F222C" d="M35.118,88.217c5.38,0,9.741,4.36,9.741,9.741H25.377C25.377,92.577,29.738,88.217,35.118,88.217"/>
	<path fill="#222846" d="M70.143,97.958c0-4.536,3.675-8.21,8.209-8.21c4.534,0,8.208,3.675,8.208,8.21
		c0,4.533-3.674,8.207-8.208,8.207C73.818,106.165,70.143,102.491,70.143,97.958"/>
	<path fill="#F2F2F2" d="M74.313,97.958c0-2.232,1.808-4.041,4.039-4.041s4.039,1.808,4.039,4.041c0,2.23-1.807,4.037-4.039,4.037
		S74.313,100.188,74.313,97.958"/>
	<path fill="#222846" d="M27.289,97.958c0-4.536,3.675-8.21,8.209-8.21c4.533,0,8.208,3.675,8.208,8.21
		c0,4.533-3.675,8.207-8.208,8.207C30.964,106.165,27.289,102.491,27.289,97.958"/>
	<path fill="#F2F2F2" d="M31.458,97.958c0-2.232,1.809-4.041,4.04-4.041c2.23,0,4.039,1.808,4.039,4.041
		c0,2.23-1.809,4.037-4.039,4.037C33.268,101.995,31.458,100.188,31.458,97.958"/>
	<rect x="95.193" y="86.542" fill="#CE3836" width="3.518" height="3.348"/>
	<rect x="91.674" y="86.542" fill="#FF524F" width="3.518" height="3.348"/>
	<rect x="116.935" y="86.542" fill="#CE3836" width="3.52" height="3.348"/>
	<path fill="#286499" d="M47.354,81.866h3.238c0.568,0,1.029-0.46,1.029-1.028v-0.737h-5.296v0.737
		C46.325,81.406,46.786,81.866,47.354,81.866"/>
	<path fill="#222846" d="M47.354,81.429h3.238c0.568,0,1.029-0.46,1.029-1.028v-0.3h-5.296v0.3
		C46.325,80.969,46.786,81.429,47.354,81.429"/>
	<path fill="#F2F2F2" d="M23.501,88.217c0-1.767-1.432-3.2-3.199-3.2v6.397C22.069,91.414,23.501,89.982,23.501,88.217"/>
	<path fill="#1B3241" d="M120.454,92.502H95.193c-0.895,0-1.62,0.726-1.62,1.62v2.215c0,0.896,0.725,1.621,1.62,1.621h25.261
		c0.895,0,1.619-0.726,1.619-1.621v-2.215C122.073,93.228,121.349,92.502,120.454,92.502"/>
	<path fill="#F2F2F2" d="M98.11,95.229c0-0.64-0.519-1.159-1.159-1.159c-0.639,0-1.159,0.519-1.159,1.159
		c0,0.641,0.52,1.158,1.159,1.158C97.591,96.388,98.11,95.87,98.11,95.229"/>
	<path fill="#F2F2F2" d="M100.106,95.229c0-0.32-0.26-0.58-0.58-0.58s-0.579,0.26-0.579,0.58c0,0.319,0.259,0.579,0.579,0.579
		S100.106,95.549,100.106,95.229"/>
	<path fill="#F2F2F2" d="M117.536,95.229c0,0.641,0.518,1.158,1.158,1.158s1.159-0.518,1.159-1.158c0-0.64-0.519-1.159-1.159-1.159
		S117.536,94.589,117.536,95.229"/>
	<path fill="#F2F2F2" d="M115.539,95.229c0,0.319,0.259,0.579,0.58,0.579c0.319,0,0.579-0.26,0.579-0.579
		c0-0.32-0.26-0.58-0.579-0.58C115.798,94.65,115.539,94.91,115.539,95.229"/>
</g>
</svg>
