<?xml version="1.0" encoding="utf-8"?>
<!-- Generator: Adobe Illustrator 15.1.0, SVG Export Plug-In . SVG Version: 6.00 Build 0)  -->
<svg version="1.2" baseProfile="tiny" id="Layer_1" xmlns="http://www.w3.org/2000/svg" xmlns:xlink="http://www.w3.org/1999/xlink"
	 x="0px" y="0px" width="395.5px" height="217px" viewBox="0 0 395.5 217" xml:space="preserve">
<g>
	<path fill="#1D4259" d="M393.741,210.972c0,2.752-97.969,4.978-218.817,4.978S3.525,213.724,3.525,210.972
		c0-2.751,50.55-4.979,171.398-4.979S393.741,208.221,393.741,210.972"/>
	<path fill="#0F222C" d="M68.642,157.275c15.466,0,28,12.542,28,28.004c0,15.463-12.534,27.995-28,27.995H60.88v-55.999H68.642z"/>
	<path fill="#0F222C" d="M214.813,157.275c15.466,0,28.001,12.542,28.001,28.004c0,15.463-12.535,27.995-28.001,27.995h-7.762
		v-55.999H214.813z"/>
	<path fill="#0F222C" d="M68.642,157.275c15.466,0,28,12.542,28,28.004c0,15.463-12.534,27.995-28,27.995H60.88v-55.999H68.642z"/>
	<path fill="#0F222C" d="M93.608,180.051c0-15.46,12.537-27.998,28-27.998c15.465,0,28.001,12.538,28.001,27.998
		c0,15.465-12.536,28.001-28.001,28.001C106.145,208.052,93.608,195.516,93.608,180.051"/>
	<path fill="#0F222C" d="M278.857,152.053c15.462,0,28.001,12.538,28.001,27.998c0,15.465-12.539,28.001-28.001,28.001h-7.768
		v-55.999H278.857z"/>
	<path fill="#0F222C" d="M243.095,180.051c0-15.46,12.532-27.998,27.995-27.998c15.468,0,28.004,12.538,28.004,27.998
		c0,15.465-12.536,28.001-28.004,28.001C255.627,208.052,243.095,195.516,243.095,180.051"/>
	<rect x="207.052" y="2.318" fill="#E8BF7C" width="143.608" height="49.597"/>
	<rect x="149.608" y="51.786" fill="#E8BF7C" width="114.886" height="114.886"/>
	<rect x="264.497" y="51.786" fill="#D0A56B" width="86.163" height="114.886"/>
	<polygon fill="#A87944" points="264.497,51.916 350.66,51.916 393.741,9.091 307.575,9.091 	"/>
	<polygon fill="#D0A56B" points="264.497,51.781 149.608,51.781 106.527,8.703 221.412,8.703 	"/>
	<path fill="#1D4259" d="M9.05,185.279h255.447v-18.607H9.05c-3.051,0-5.524,2.475-5.524,5.524v7.556
		C3.525,182.805,5.999,185.279,9.05,185.279"/>
	<path fill="#3F6BFF" d="M9.05,166.672h140.559V51.781H79.174c-13.747,0-26.601,6.83-34.295,18.22l-28.733,42.524
		c-4.625,6.845-7.096,14.917-7.096,23.175V166.672z"/>
	<path fill="#F2F2F2" d="M115.874,119.768V64.712h-36.7c-9.466,0-18.285,4.683-23.584,12.529l-28.73,42.526H115.874z"/>
	<rect x="132.681" y="51.781" fill="#1C2554" width="16.928" height="114.891"/>
	<path fill="#0F222C" d="M205.756,152.053c18.353,0,33.227,14.874,33.227,33.227h-66.45
		C172.532,166.927,187.407,152.053,205.756,152.053"/>
	<path fill="#0F222C" d="M59.585,152.053c18.35,0,33.226,14.874,33.226,33.227H26.36C26.36,166.927,41.235,152.053,59.585,152.053"
		/>
	<path fill="#222846" d="M179.051,185.279c0-15.469,12.537-28.004,28.001-28.004c15.466,0,27.998,12.535,27.998,28.004
		c0,15.463-12.532,27.995-27.998,27.995C191.588,213.274,179.051,200.742,179.051,185.279"/>
	<path fill="#F2F2F2" d="M193.274,185.279c0-7.614,6.166-13.781,13.777-13.781s13.776,6.167,13.776,13.781
		c0,7.608-6.165,13.772-13.776,13.772S193.274,192.888,193.274,185.279"/>
	<path fill="#222846" d="M32.879,185.279c0-15.469,12.536-28.004,28.001-28.004c15.462,0,27.999,12.535,27.999,28.004
		c0,15.463-12.537,27.995-27.999,27.995C45.415,213.274,32.879,200.742,32.879,185.279"/>
	<path fill="#F2F2F2" d="M47.103,185.279c0-7.614,6.169-13.781,13.777-13.781s13.776,6.167,13.776,13.781
		c0,7.608-6.168,13.772-13.776,13.772S47.103,192.888,47.103,185.279"/>
	<rect x="264.497" y="146.341" fill="#CE3836" width="11.997" height="11.421"/>
	<rect x="252.494" y="146.341" fill="#FF524F" width="12" height="11.421"/>
	<rect x="338.657" y="146.341" fill="#CE3836" width="12.003" height="11.421"/>
	<path fill="#286499" d="M101.319,130.392h11.046c1.937,0,3.508-1.569,3.508-3.505v-2.514H97.811v2.514
		C97.811,128.822,99.382,130.392,101.319,130.392"/>
	<path fill="#222846" d="M101.319,128.902h11.046c1.937,0,3.508-1.57,3.508-3.509v-1.021H97.811v1.021
		C97.811,127.333,99.382,128.902,101.319,128.902"/>
	<path fill="#F2F2F2" d="M19.96,152.053c0-6.026-4.884-10.913-10.911-10.913v21.82C15.076,162.96,19.96,158.076,19.96,152.053"/>
	<path fill="#1B3241" d="M350.66,166.672h-86.163c-3.054,0-5.527,2.475-5.527,5.524v7.556c0,3.053,2.474,5.527,5.527,5.527h86.163
		c3.053,0,5.524-2.475,5.524-5.527v-7.556C356.185,169.146,353.713,166.672,350.66,166.672"/>
	<path fill="#F2F2F2" d="M274.447,175.973c0-2.183-1.77-3.952-3.955-3.952c-2.179,0-3.951,1.77-3.951,3.952
		c0,2.186,1.772,3.951,3.951,3.951C272.678,179.924,274.447,178.158,274.447,175.973"/>
	<path fill="#F2F2F2" d="M281.258,175.973c0-1.09-0.886-1.976-1.979-1.976s-1.977,0.886-1.977,1.976s0.884,1.976,1.977,1.976
		S281.258,177.063,281.258,175.973"/>
	<path fill="#F2F2F2" d="M340.707,175.973c0,2.186,1.767,3.951,3.951,3.951c2.186,0,3.955-1.766,3.955-3.951
		c0-2.183-1.77-3.952-3.955-3.952C342.474,172.021,340.707,173.79,340.707,175.973"/>
	<path fill="#F2F2F2" d="M333.898,175.973c0,1.09,0.881,1.976,1.977,1.976c1.089,0,1.976-0.886,1.976-1.976
		s-0.887-1.976-1.976-1.976C334.779,173.997,333.898,174.883,333.898,175.973"/>
</g>
</svg>
